<svg width="356" height="60" viewBox="0 0 356 60" fill="none" xmlns="http://www.w3.org/2000/svg">
<path fill-rule="evenodd" clip-rule="evenodd" d="M14.6363 59.6172L14.6363 41.6996L16.4204 41.6996L16.4204 43.4838C16.4204 41.6996 16.4203 41.6996 16.4204 41.6996L47.3337 41.6996L47.3337 59.6172L14.6363 59.6172ZM18.2046 45.2679L18.2046 56.049L43.7655 56.049L43.7655 45.2679L18.2046 45.2679Z" fill="#C4C4C4"/>
<path fill-rule="evenodd" clip-rule="evenodd" d="M7.46164 27.0633H25.6662V56.9722H22.098V30.6316H11.0299V56.9722H7.46164V27.0633Z" fill="#DEDEDE"/>
<path fill-rule="evenodd" clip-rule="evenodd" d="M27.326 0L54.6519 22.2599V59.6172H0V22.2599L27.326 0ZM27.326 4.60233L3.56825 23.9555V56.049H51.0837V23.9555L27.326 4.60233Z" fill="white"/>
<path d="M93.0442 59.5925C91.0864 59.5925 89.3078 59.2479 87.7085 58.5585C86.1367 57.8691 84.7856 56.8902 83.655 55.6218C82.5244 54.3533 81.6558 52.8367 81.0492 51.0719C80.4425 49.2796 80.1392 47.2942 80.1392 45.1158V44.3299C80.1392 42.1791 80.4701 40.2075 81.1319 38.4151C81.8213 36.6227 82.7588 35.0923 83.9445 33.8239C85.1578 32.5279 86.5917 31.5352 88.2462 30.8458C89.9283 30.1289 91.7758 29.7704 93.7887 29.7704H94.2851C96.5738 29.7704 98.697 30.3357 100.655 31.4663C102.64 32.5693 104.24 34.1272 105.453 36.1402L101.11 38.9115C100.365 37.5051 99.414 36.4297 98.2558 35.6852C97.1253 34.9407 95.8017 34.5684 94.2851 34.5684H93.8714C92.6582 34.5684 91.5414 34.8028 90.5211 35.2716C89.5284 35.7404 88.6736 36.4021 87.9567 37.257C87.2673 38.1118 86.7296 39.1321 86.3435 40.3178C85.9575 41.5035 85.7645 42.8271 85.7645 44.2885V45.1571C85.7645 46.6186 85.9575 47.9422 86.3435 49.1279C86.7296 50.3136 87.2811 51.3339 87.998 52.1887C88.715 53.016 89.5836 53.664 90.6038 54.1327C91.6241 54.5739 92.7685 54.7945 94.0369 54.7945H94.4505C95.4156 54.7945 96.3118 54.6429 97.1391 54.3395C97.9663 54.0362 98.6832 53.6226 99.2899 53.0987C99.8965 52.5748 100.365 51.9543 100.696 51.2374C101.027 50.5204 101.193 49.7621 101.193 48.9625V48.342H94.7401V43.7922H106.197V59.1789H102.268C102.103 58.848 101.951 58.3793 101.813 57.7726C101.703 57.1384 101.62 56.5317 101.565 55.9527C101.206 56.4766 100.738 56.9592 100.158 57.4003C99.5794 57.8415 98.9314 58.2276 98.2145 58.5585C97.5251 58.8894 96.7668 59.1376 95.9396 59.303C95.1399 59.496 94.3264 59.5925 93.4992 59.5925H93.0442Z" fill="white"/>
<path d="M110.353 44.2885C110.353 42.0826 110.684 40.0972 111.346 38.3324C112.035 36.54 112.986 35.0096 114.2 33.7412C115.413 32.4452 116.861 31.4525 118.543 30.7631C120.225 30.0737 122.072 29.729 124.085 29.729H124.582C126.595 29.729 128.442 30.0737 130.124 30.7631C131.806 31.4525 133.254 32.4452 134.467 33.7412C135.68 35.0096 136.618 36.54 137.28 38.3324C137.969 40.0972 138.314 42.0826 138.314 44.2885V45.1158C138.314 47.2942 137.969 49.2796 137.28 51.0719C136.618 52.8643 135.68 54.4085 134.467 55.7045C133.254 56.9729 131.806 57.9518 130.124 58.6412C128.442 59.3306 126.595 59.6753 124.582 59.6753H124.085C122.072 59.6753 120.225 59.3306 118.543 58.6412C116.861 57.9243 115.413 56.9316 114.2 55.6631C112.986 54.3671 112.035 52.8367 111.346 51.0719C110.684 49.2796 110.353 47.2942 110.353 45.1158V44.2885ZM115.978 45.1158C115.978 46.6048 116.185 47.956 116.599 49.1693C117.012 50.355 117.578 51.3753 118.295 52.2301C119.011 53.0573 119.866 53.7053 120.859 54.1741C121.852 54.6153 122.941 54.8359 124.127 54.8359H124.54C125.726 54.8359 126.815 54.6153 127.808 54.1741C128.801 53.7053 129.655 53.0573 130.372 52.2301C131.117 51.3753 131.682 50.355 132.068 49.1693C132.482 47.956 132.689 46.6048 132.689 45.1158V44.2885C132.689 42.7995 132.482 41.4621 132.068 40.2764C131.682 39.0631 131.117 38.0428 130.372 37.2156C129.655 36.3608 128.801 35.7128 127.808 35.2716C126.815 34.8028 125.726 34.5684 124.54 34.5684H124.127C122.941 34.5684 121.852 34.8028 120.859 35.2716C119.866 35.7128 119.011 36.3608 118.295 37.2156C117.578 38.0428 117.012 39.0631 116.599 40.2764C116.185 41.4621 115.978 42.7995 115.978 44.2885V45.1158Z" fill="white"/>
<path d="M143.354 30.2254H153.777C156.949 30.2254 159.416 31.0251 161.181 32.6244C162.974 34.1962 163.87 36.3608 163.87 39.1183V39.5319C163.87 41.4345 163.415 43.089 162.505 44.4953C161.622 45.9017 160.382 46.9219 158.782 47.5561L165.855 59.1789H159.444L153.488 48.6316H148.773V59.1789H143.354V30.2254ZM152.992 44.3713C154.784 44.3713 156.135 43.9576 157.045 43.1304C157.983 42.3032 158.451 41.1726 158.451 39.7387V39.3251C158.451 37.9188 157.983 36.8296 157.045 36.0575C156.108 35.2578 154.77 34.858 153.033 34.858H148.649V44.3713H152.992Z" fill="white"/>
<path d="M167.428 44.2885C167.428 42.0826 167.759 40.0972 168.421 38.3324C169.11 36.54 170.061 35.0096 171.275 33.7412C172.488 32.4452 173.936 31.4525 175.618 30.7631C177.3 30.0737 179.147 29.729 181.16 29.729H181.657C183.669 29.729 185.517 30.0737 187.199 30.7631C188.881 31.4525 190.329 32.4452 191.542 33.7412C192.755 35.0096 193.693 36.54 194.355 38.3324C195.044 40.0972 195.389 42.0826 195.389 44.2885V45.1158C195.389 47.2942 195.044 49.2796 194.355 51.0719C193.693 52.8643 192.755 54.4085 191.542 55.7045C190.329 56.9729 188.881 57.9518 187.199 58.6412C185.517 59.3306 183.669 59.6753 181.657 59.6753H181.16C179.147 59.6753 177.3 59.3306 175.618 58.6412C173.936 57.9243 172.488 56.9316 171.275 55.6631C170.061 54.3671 169.11 52.8367 168.421 51.0719C167.759 49.2796 167.428 47.2942 167.428 45.1158V44.2885ZM173.053 45.1158C173.053 46.6048 173.26 47.956 173.674 49.1693C174.087 50.355 174.653 51.3753 175.369 52.2301C176.086 53.0573 176.941 53.7053 177.934 54.1741C178.927 54.6153 180.016 54.8359 181.202 54.8359H181.615C182.801 54.8359 183.89 54.6153 184.883 54.1741C185.875 53.7053 186.73 53.0573 187.447 52.2301C188.192 51.3753 188.757 50.355 189.143 49.1693C189.557 47.956 189.763 46.6048 189.763 45.1158V44.2885C189.763 42.7995 189.557 41.4621 189.143 40.2764C188.757 39.0631 188.192 38.0428 187.447 37.2156C186.73 36.3608 185.875 35.7128 184.883 35.2716C183.89 34.8028 182.801 34.5684 181.615 34.5684H181.202C180.016 34.5684 178.927 34.8028 177.934 35.2716C176.941 35.7128 176.086 36.3608 175.369 37.2156C174.653 38.0428 174.087 39.0631 173.674 40.2764C173.26 41.4621 173.053 42.7995 173.053 44.2885V45.1158Z" fill="white"/>
<path d="M195.872 30.2254H201.621L208.28 53.5123H208.653L215.271 30.2254H220.979L212.003 59.1789H204.889L195.872 30.2254Z" fill="white"/>
<path d="M235.653 30.2254H241.03V42.0136H252.363V30.2254H257.781V59.1789H252.363V46.8116H241.03V59.1789H235.653V30.2254Z" fill="white"/>
<path d="M262.836 44.2885C262.836 42.0826 263.166 40.0972 263.828 38.3324C264.518 36.54 265.469 35.0096 266.682 33.7412C267.896 32.4452 269.343 31.4525 271.025 30.7631C272.707 30.0737 274.555 29.729 276.568 29.729H277.064C279.077 29.729 280.925 30.0737 282.607 30.7631C284.289 31.4525 285.736 32.4452 286.95 33.7412C288.163 35.0096 289.101 36.54 289.762 38.3324C290.452 40.0972 290.796 42.0826 290.796 44.2885V45.1158C290.796 47.2942 290.452 49.2796 289.762 51.0719C289.101 52.8643 288.163 54.4085 286.95 55.7045C285.736 56.9729 284.289 57.9518 282.607 58.6412C280.925 59.3306 279.077 59.6753 277.064 59.6753H276.568C274.555 59.6753 272.707 59.3306 271.025 58.6412C269.343 57.9243 267.896 56.9316 266.682 55.6631C265.469 54.3671 264.518 52.8367 263.828 51.0719C263.166 49.2796 262.836 47.2942 262.836 45.1158V44.2885ZM268.461 45.1158C268.461 46.6048 268.668 47.956 269.081 49.1693C269.495 50.355 270.06 51.3753 270.777 52.2301C271.494 53.0573 272.349 53.7053 273.342 54.1741C274.334 54.6153 275.423 54.8359 276.609 54.8359H277.023C278.209 54.8359 279.298 54.6153 280.29 54.1741C281.283 53.7053 282.138 53.0573 282.855 52.2301C283.599 51.3753 284.165 50.355 284.551 49.1693C284.964 47.956 285.171 46.6048 285.171 45.1158V44.2885C285.171 42.7995 284.964 41.4621 284.551 40.2764C284.165 39.0631 283.599 38.0428 282.855 37.2156C282.138 36.3608 281.283 35.7128 280.29 35.2716C279.298 34.8028 278.209 34.5684 277.023 34.5684H276.609C275.423 34.5684 274.334 34.8028 273.342 35.2716C272.349 35.7128 271.494 36.3608 270.777 37.2156C270.06 38.0428 269.495 39.0631 269.081 40.2764C268.668 41.4621 268.461 42.7995 268.461 44.2885V45.1158Z" fill="white"/>
<path d="M299.507 35.0234H292.02V30.2254H312.37V35.0234H304.884V59.1789H299.507V35.0234Z" fill="white"/>
<path d="M316.599 30.2254H333.64V35.0234H322.017V42.2618H332.813V46.8116H322.017V54.3809H334.053V59.1789H316.599V30.2254Z" fill="white"/>
<path d="M339.703 30.2254H345.122V54.3809H356V59.1789H339.703V30.2254Z" fill="white"/>
</svg>
