<svg width="23" height="16" viewBox="0 0 23 16" fill="none" xmlns="http://www.w3.org/2000/svg">
<path d="M21.9306 8.7071C22.3212 8.31658 22.3212 7.68342 21.9306 7.29289L15.5667 0.928931C15.1761 0.538407 14.543 0.538407 14.1525 0.928931C13.7619 1.31946 13.7619 1.95262 14.1525 2.34314L19.8093 8L14.1525 13.6569C13.7619 14.0474 13.7619 14.6805 14.1525 15.0711C14.543 15.4616 15.1761 15.4616 15.5667 15.0711L21.9306 8.7071ZM0.470581 9L10.8471 9L10.8471 7L0.470581 7L0.470581 9ZM10.8471 9L21.2235 9L21.2235 7L10.8471 7L10.8471 9Z" fill="white"/>
</svg>
