<svg width="31" height="32" viewBox="0 0 31 32" fill="none" xmlns="http://www.w3.org/2000/svg">
<path fill-rule="evenodd" clip-rule="evenodd" d="M15.4875 0.484863C18.3721 0.51778 20.978 1.22672 23.3053 2.61169C25.6048 3.96902 27.5177 5.89358 28.861 8.20136C30.2375 10.5427 30.9422 13.1644 30.975 16.0665C30.8932 20.0374 29.6408 23.4288 27.2177 26.241C24.7946 29.0531 21.6911 30.7928 18.4785 31.4598V20.3268H21.5158L22.2027 15.9518H17.6035V13.0863C17.578 12.4923 17.7658 11.9087 18.1331 11.4411C18.5009 10.9722 19.1486 10.7258 20.0762 10.7018H22.8535V6.86941C22.8136 6.85659 22.4355 6.80589 21.7191 6.71731C20.9066 6.62225 20.0896 6.57147 19.2716 6.56521C17.4202 6.57375 15.9561 7.09599 14.879 8.13192C13.802 9.16756 13.2518 10.6659 13.2285 12.627V15.9518H9.72851V20.3268H13.2285V31.4598C9.28383 30.7928 6.18039 29.0531 3.75726 26.241C1.33414 23.4288 0.0817625 20.0374 0 16.0665C0.0327125 13.1643 0.737371 10.5425 2.11398 8.20136C3.45727 5.89359 5.37016 3.96902 7.66971 2.61169C9.99693 1.22699 12.6029 0.518047 15.4875 0.484863Z" fill="white"/>
</svg>
