<svg width="33" height="32" viewBox="0 0 33 32" fill="none" xmlns="http://www.w3.org/2000/svg">
<path d="M17.2899 31.9999C17.184 31.9999 17.078 31.9999 16.9713 31.9994C14.463 32.0055 12.1454 31.9418 9.89148 31.8046C7.82507 31.6789 5.93884 30.9648 4.4364 29.7397C2.98669 28.5575 1.9967 26.9591 1.49402 24.9894C1.05652 23.2746 1.03333 21.5912 1.01111 19.963C0.994995 18.7948 0.978394 17.4106 0.974976 16.0028C0.978394 14.5893 0.994995 13.205 1.01111 12.0368C1.03333 10.4088 1.05652 8.7255 1.49402 7.01041C1.9967 5.04068 2.98669 3.44229 4.4364 2.26016C5.93884 1.03507 7.82507 0.320955 9.89172 0.195223C12.1456 0.0582598 14.4637 -0.00570501 16.9774 0.000398507C19.4864 -0.00497259 21.8033 0.0582598 24.0572 0.195223C26.1237 0.320955 28.0099 1.03507 29.5123 2.26016C30.9623 3.44229 31.952 5.04068 32.4547 7.01041C32.8922 8.72525 32.9154 10.4088 32.9376 12.0368C32.9537 13.205 32.9706 14.5893 32.9737 15.997V16.0028C32.9706 17.4106 32.9537 18.7948 32.9376 19.963C32.9154 21.591 32.8925 23.2743 32.4547 24.9894C31.952 26.9591 30.9623 28.5575 29.5123 29.7397C28.0099 30.9648 26.1237 31.6789 24.0572 31.8046C21.8988 31.9359 19.6815 31.9999 17.2899 31.9999ZM16.9713 29.4994C19.4388 29.5053 21.7045 29.443 23.9054 29.3092C25.4679 29.2143 26.8226 28.7072 27.9325 27.8022C28.9584 26.9655 29.6649 25.8112 30.0323 24.3712C30.3966 22.9438 30.4176 21.411 30.4379 19.9289C30.4537 18.7685 30.4703 17.394 30.4737 15.9999C30.4703 14.6056 30.4537 13.2314 30.4379 12.071C30.4176 10.5888 30.3966 9.05606 30.0323 7.62833C29.6649 6.18839 28.9584 5.03409 27.9325 4.19742C26.8226 3.29263 25.4679 2.78555 23.9054 2.69058C21.7045 2.55655 19.4388 2.49478 16.9772 2.50015C14.5101 2.49429 12.2443 2.55655 10.0433 2.69058C8.48083 2.78555 7.1261 3.29263 6.01623 4.19742C4.99036 5.03409 4.28381 6.18839 3.91638 7.62833C3.55212 9.05606 3.53113 10.5885 3.51086 12.071C3.49499 13.2323 3.47839 14.6076 3.47498 16.0028C3.47839 17.392 3.49499 18.7675 3.51086 19.9289C3.53113 21.411 3.55212 22.9438 3.91638 24.3712C4.28381 25.8112 4.99036 26.9655 6.01623 27.8022C7.1261 28.7069 8.48083 29.214 10.0433 29.309C12.2443 29.443 14.5106 29.5055 16.9713 29.4994ZM16.9117 23.8124C12.6041 23.8124 9.09924 20.3078 9.09924 15.9999C9.09924 11.692 12.6041 8.18741 16.9117 8.18741C21.2196 8.18741 24.7242 11.692 24.7242 15.9999C24.7242 20.3078 21.2196 23.8124 16.9117 23.8124ZM16.9117 10.6874C13.9825 10.6874 11.5992 13.0707 11.5992 15.9999C11.5992 18.9291 13.9825 21.3124 16.9117 21.3124C19.8412 21.3124 22.2242 18.9291 22.2242 15.9999C22.2242 13.0707 19.8412 10.6874 16.9117 10.6874ZM25.5992 5.68741C24.5638 5.68741 23.7242 6.52676 23.7242 7.56241C23.7242 8.59805 24.5638 9.43741 25.5992 9.43741C26.6349 9.43741 27.4742 8.59805 27.4742 7.56241C27.4742 6.52676 26.6349 5.68741 25.5992 5.68741Z" fill="white"/>
</svg>
